<?xml version="1.0"?>
<!-- Generated by SVGo -->
<svg width="2500" height="2500"
     xmlns="http://www.w3.org/2000/svg" 
     xmlns:xlink="http://www.w3.org/1999/xlink">
<circle cx="1108" cy="2037" r="15" style="fill:black;"/>
<circle cx="1071" cy="1839" r="15" style="fill:black;"/>
<circle cx="1038" cy="1641" r="15" style="fill:black;"/>
<circle cx="1122" cy="1459" r="15" style="fill:black;"/>
<circle cx="1203" cy="1274" r="15" style="fill:black;"/>
<circle cx="1214" cy="1070" r="15" style="fill:black;"/>
<circle cx="1212" cy="868" r="15" style="fill:black;"/>
<circle cx="1206" cy="667" r="15" style="fill:black;"/>
<circle cx="1190" cy="466" r="15" style="fill:black;"/>
<circle cx="1082" cy="290" r="15" style="fill:black;"/>
<circle cx="881" cy="234" r="15" style="fill:black;"/>
<circle cx="728" cy="366" r="15" style="fill:black;"/>
<circle cx="716" cy="573" r="15" style="fill:black;"/>
<circle cx="681" cy="771" r="15" style="fill:black;"/>
<circle cx="629" cy="966" r="15" style="fill:black;"/>
<circle cx="566" cy="1160" r="15" style="fill:black;"/>
<circle cx="503" cy="1354" r="15" style="fill:black;"/>
<circle cx="468" cy="1554" r="15" style="fill:black;"/>
<circle cx="400" cy="1743" r="15" style="fill:black;"/>
<circle cx="411" cy="1944" r="15" style="fill:black;"/>
<circle cx="473" cy="2136" r="15" style="fill:black;"/>
<circle cx="655" cy="2218" r="15" style="fill:black;"/>
<circle cx="852" cy="2176" r="15" style="fill:black;"/>
<circle cx="832" cy="1977" r="10" style="fill:red;"/>
<circle cx="601" cy="1698" r="10" style="fill:red;"/>
<circle cx="487" cy="1893" r="10" style="fill:red;"/>
<circle cx="946" cy="2009" r="10" style="fill:red;"/>
<circle cx="873" cy="1614" r="10" style="fill:red;"/>
<circle cx="757" cy="855" r="10" style="fill:red;"/>
<circle cx="1154" cy="1134" r="10" style="fill:red;"/>
<circle cx="698" cy="1021" r="10" style="fill:red;"/>
<circle cx="720" cy="663" r="10" style="fill:red;"/>
<circle cx="696" cy="1369" r="10" style="fill:red;"/>
<circle cx="955" cy="273" r="10" style="fill:red;"/>
<circle cx="922" cy="504" r="10" style="fill:red;"/>
<circle cx="1028" cy="817" r="10" style="fill:red;"/>
<circle cx="902" cy="1092" r="10" style="fill:red;"/>
<circle cx="1088" cy="446" r="10" style="fill:red;"/>
<circle cx="966" cy="1651" r="10" style="fill:red;"/>
<circle cx="747" cy="1751" r="10" style="fill:red;"/>
<circle cx="739" cy="463" r="10" style="fill:red;"/>
<circle cx="1157" cy="690" r="10" style="fill:red;"/>
<circle cx="531" cy="1655" r="10" style="fill:red;"/>
<circle cx="907" cy="1409" r="10" style="fill:red;"/>
</svg>
