<?xml version="1.0"?>
<!-- Generated by SVGo -->
<svg width="2500" height="2500"
     xmlns="http://www.w3.org/2000/svg" 
     xmlns:xlink="http://www.w3.org/1999/xlink">
<circle cx="1108" cy="2037" r="15" style="fill:black;"/>
<circle cx="1071" cy="1839" r="15" style="fill:black;"/>
<circle cx="1038" cy="1641" r="15" style="fill:black;"/>
<circle cx="1122" cy="1459" r="15" style="fill:black;"/>
<circle cx="1203" cy="1274" r="15" style="fill:black;"/>
<circle cx="1214" cy="1070" r="15" style="fill:black;"/>
<circle cx="1212" cy="868" r="15" style="fill:black;"/>
<circle cx="1206" cy="667" r="15" style="fill:black;"/>
<circle cx="1190" cy="466" r="15" style="fill:black;"/>
<circle cx="1082" cy="290" r="15" style="fill:black;"/>
<circle cx="881" cy="234" r="15" style="fill:black;"/>
<circle cx="728" cy="366" r="15" style="fill:black;"/>
<circle cx="716" cy="573" r="15" style="fill:black;"/>
<circle cx="681" cy="771" r="15" style="fill:black;"/>
<circle cx="629" cy="966" r="15" style="fill:black;"/>
<circle cx="566" cy="1160" r="15" style="fill:black;"/>
<circle cx="503" cy="1354" r="15" style="fill:black;"/>
<circle cx="468" cy="1554" r="15" style="fill:black;"/>
<circle cx="400" cy="1743" r="15" style="fill:black;"/>
<circle cx="411" cy="1944" r="15" style="fill:black;"/>
<circle cx="473" cy="2136" r="15" style="fill:black;"/>
<circle cx="655" cy="2218" r="15" style="fill:black;"/>
<circle cx="852" cy="2176" r="15" style="fill:black;"/>
<circle cx="927" cy="286" r="10" style="fill:red;"/>
<circle cx="1021" cy="1439" r="10" style="fill:red;"/>
<circle cx="764" cy="1212" r="10" style="fill:red;"/>
<circle cx="826" cy="1883" r="10" style="fill:red;"/>
<circle cx="717" cy="1440" r="10" style="fill:red;"/>
<circle cx="689" cy="970" r="10" style="fill:red;"/>
<circle cx="737" cy="584" r="10" style="fill:red;"/>
<circle cx="1117" cy="882" r="10" style="fill:red;"/>
<circle cx="1043" cy="1931" r="10" style="fill:red;"/>
<circle cx="943" cy="1172" r="10" style="fill:red;"/>
<circle cx="494" cy="1471" r="10" style="fill:red;"/>
<circle cx="1130" cy="731" r="10" style="fill:red;"/>
<circle cx="1064" cy="1563" r="10" style="fill:red;"/>
<circle cx="533" cy="2073" r="10" style="fill:red;"/>
<circle cx="894" cy="736" r="10" style="fill:red;"/>
<circle cx="786" cy="2012" r="10" style="fill:red;"/>
<circle cx="1133" cy="490" r="10" style="fill:red;"/>
</svg>
